<?xml version="1.0" encoding="UTF-8"?>
<svg width="704px" height="707px" viewBox="0 0 704 707" version="1.1" xmlns="http://www.w3.org/2000/svg" xmlns:xlink="http://www.w3.org/1999/xlink">
    <!-- Generator: Sketch 51.2 (57519) - http://www.bohemiancoding.com/sketch -->
    <title>Layer_2_1_</title>
    <desc>Created with Sketch.</desc>
    <defs></defs>
    <g id="Page-1" stroke="none" stroke-width="1" fill="none" fill-rule="evenodd">
        <g id="KubeVirt_icon" transform="translate(-3.000000, 0.000000)">
            <g id="Layer_2_1_" transform="translate(3.000000, 0.000000)">
                <g id="svg10488">
                    <g id="Group-3">
                        <path d="M88.3301094,140.887068 L88.7124908,140.492506 L88.3301094,140.887068 C82.9767694,145.227258 78.7705737,151.145699 76.0939038,157.853265 C78.7705737,151.145699 82.9767694,145.227258 88.3301094,140.887068 Z" id="Shape"></path>
                        <path d="M74.1819966,167.717332 C75.1379502,164.42931 77.0498573,161.141287 79.917718,157.853265 C77.0498573,161.141287 75.1379502,164.42931 74.1819966,167.717332 Z" id="Shape"></path>
                        <path d="M227.516948,690.710197 C224.575552,690.710197 220.898809,690.710197 217.957413,689.72379 C221.634157,689.72379 224.575552,690.710197 227.516948,690.710197 Z" id="Shape"></path>
                        <path d="M606.839323,136.941441 L371.292365,20.5454437 C370.527602,20.150881 369.762839,19.7563183 368.998076,19.3617556 C367.46855,18.5726302 365.939025,18.1780674 364.027118,17.7835047 C362.497592,17.388942 360.968066,16.9943793 359.43854,16.9943793 C357.144252,16.5998166 354.467582,16.5998166 352.173293,16.5998166 C347.202335,16.5998166 342.613758,16.5998166 337.642799,17.388942 C336.113273,17.7835047 334.583748,17.7835047 332.671841,18.1780674 L97.1248822,135.363191 C94.4482122,136.546879 91.3891608,138.519692 89.0948722,140.492506 L88.7124908,140.887068 L210.692166,394.196325 L118.920623,200.8606 L273.785101,200.8606 L335.730892,318.834848 L314.317532,359.869369 L313.552769,360.263932 L250.842215,240.31687 L182.39594,240.31687 L290.227502,476.265367 L305.522759,446.278602 C310.493718,436.809097 321.965161,432.86347 331.524696,437.992785 C340.701851,443.1221 344.525665,454.958981 339.554706,464.823049 L311.640862,518.878139 L290.227502,559.91266 L352.938056,689.72379 L412.207177,568.987603 C406.089074,577.667982 393.852869,579.640796 385.440477,573.327792 C377.792849,567.803915 375.49856,557.150722 379.704756,548.864905 L393.470487,520.45639 C398.823827,510.986885 410.29527,507.830383 419.472424,513.354261 C427.502434,518.089014 430.943867,528.347644 427.884816,537.422586 L455.79866,480.605557 C449.680557,489.285936 437.444351,491.25875 429.03196,484.551184 C421.766713,479.027306 419.090043,468.768676 423.296239,460.088296 L450.827701,403.66583 C455.416278,393.801762 466.887721,389.856135 476.447257,394.98545 C486.006792,400.114765 489.830607,411.557084 484.859648,421.421151 L477.976782,435.230846 L513.155874,363.420434 C507.037771,372.495376 495.183947,374.862752 486.771555,368.549749 C478.741545,363.025871 476.064875,352.372678 480.271071,343.692298 L507.420152,287.269832 C512.008729,277.405764 523.480172,273.460137 533.039708,278.589452 C542.599243,283.324205 546.423058,295.161086 541.452099,305.025153 L526.156842,336.984733 L569.748325,248.208124 C564.394985,257.677629 552.923542,261.228693 543.746388,255.704815 C539.157811,252.942877 535.716378,248.208124 534.569233,242.684246 L511.626348,242.684246 C500.919668,242.684246 492.507277,234.003867 492.507277,222.956111 C492.507277,211.908355 500.919668,203.227976 511.626348,203.227976 L591.544066,203.227976 L572.424995,242.289683 L619.45791,146.410946 C617.928384,144.832696 616.398859,143.649007 614.869333,142.465319 C612.575044,140.492506 609.898374,138.519692 606.839323,136.941441 Z M405.706693,344.086861 L377.028086,399.720203 C372.057127,409.189707 360.585685,413.135334 351.026149,408.006019 C341.466613,402.876704 338.025181,391.039823 342.996139,381.175755 L371.674746,325.542414 C376.645705,316.072909 388.117147,312.127282 397.676683,317.256597 C407.236219,322.385912 410.677651,334.617356 405.706693,344.086861 Z M464.593433,228.874552 L435.914826,284.902456 C430.943867,294.37196 419.472424,298.317587 409.912889,293.188272 C400.735734,288.058957 396.91192,276.222076 401.882879,266.358008 L435.532444,200.071474 L447.76865,200.071474 C450.827701,200.071474 453.886753,200.8606 456.563423,202.43885 C466.122958,207.568166 469.564391,219.405047 464.593433,228.874552 C464.593433,228.874552 464.593433,228.874552 464.593433,228.874552 Z" id="Shape" fill="#00AAB2" fill-rule="nonzero"></path>
                        <path d="M89.0948722,140.492506 C91.7715422,138.519692 94.4482122,136.941441 97.1248822,135.363191 L332.671841,18.1780674 C334.201366,17.7835047 335.730892,17.388942 337.260418,17.388942 C342.231376,16.5998166 347.202335,16.5998166 352.173293,16.5998166 C354.467582,16.5998166 357.144252,16.5998166 359.43854,16.9943793 C360.968066,17.388942 362.879973,17.388942 364.409499,17.7835047 C365.939025,18.1780674 367.850932,18.5726302 369.380457,19.3617556 C370.14522,19.7563183 370.909983,20.150881 371.674746,20.5454437 L607.221704,136.941441 C610.280756,138.519692 612.957426,140.492506 615.251714,142.465319 C616.78124,143.649007 618.310766,144.832696 619.840291,146.410946 L627.105539,131.812126 C623.281724,128.655625 619.075529,125.499123 614.486951,123.131747 L614.10457,123.131747 L613.722189,123.131747 L378.17523,6.34118632 C370.14522,2.39555928 360.968066,0.422745755 352.173293,0.817308459 C344.525665,0.422745755 336.878036,1.21187116 329.230408,2.79012198 L327.700882,3.18468468 L326.171356,3.97381009 L90.6243979,121.158933 C87.5653465,122.737184 84.5062951,124.709998 81.8296252,126.682811 L88.7124908,140.887068 L89.0948722,140.492506 Z" id="Shape" fill="#FFFFFF" fill-rule="nonzero"></path>
                        <path d="M705.493731,425.366778 L705.111349,423.788527 L646.22461,163.377143 L646.22461,162.588017 L646.22461,162.193455 C642.783177,150.751136 635.900311,140.097943 626.723157,132.601252 L619.45791,147.200072 C623.664106,151.540262 627.48792,156.669577 629.782209,162.193455 C630.546971,163.771705 630.929353,165.349956 631.311734,166.928207 L689.816092,427.339592 C690.198474,430.890656 690.198474,434.047158 690.198474,437.598222 C690.198474,440.754724 689.433711,443.516663 689.05133,446.673164 C689.05133,447.46229 688.668948,448.251415 688.668948,449.040541 C687.139422,454.958981 684.462752,460.877422 681.02132,466.006737 L610.663137,555.967033 L518.126832,673.941282 C512.008729,682.621661 502.449194,688.145539 492.124895,689.72379 C489.065844,690.118353 485.624411,690.512916 482.56536,690.512916 L352.938056,690.512916 L411.824796,706.295424 L482.56536,706.295424 C502.831575,706.295424 519.656358,698.009607 530.363038,683.410787 L693.257525,475.476242 L693.639907,475.081679 L694.022288,474.687116 C703.581824,460.088296 707.788019,442.727537 705.493731,425.366778 Z" id="Shape" fill="#FFFFFF" fill-rule="nonzero"></path>
                        <path d="M222.928371,690.118353 C221.398846,690.118353 219.486938,689.72379 217.957413,689.72379 C215.663124,689.329227 213.751217,688.934665 211.456929,688.145539 C210.309784,687.750977 209.16264,687.356414 208.015496,686.961851 C205.721207,686.172726 203.426919,684.989038 201.515011,684.199912 C198.45596,682.621661 195.396909,680.648848 192.337857,678.281472 C190.42595,676.703221 188.514043,675.12497 186.984517,673.546719 L132.686355,604.103683 L24.4724113,465.217611 C19.8838341,458.510045 16.8247827,450.618791 15.6776385,441.938412 C15.295257,440.360161 15.295257,438.78191 15.295257,437.203659 C15.295257,433.652595 15.295257,430.496093 16.0600199,426.945029 L74.1819966,164.955393 C74.5643781,162.588017 75.3291409,160.220641 76.4762852,157.853265 C79.1529552,151.145699 83.3591509,145.621821 88.7124908,140.887068 L81.8296252,126.682811 C70.3581824,134.968628 62.3281724,147.200072 59.269121,161.404329 L1.14714428,423.393965 L1.14714428,423.788527 L1.14714428,424.18309 C-1.91190713,441.938412 2.29428856,459.693734 12.2362056,474.292554 L12.6185871,474.687116 L13.0009685,475.081679 L175.513075,683.410787 L175.895456,684.199912 L176.660219,684.594475 C188.896424,697.220482 204.956444,704.717173 222.163608,705.900861 L352.938056,705.900861 L352.938056,690.118353 L222.928371,690.118353 Z" id="Shape" fill="#FFFFFF" fill-rule="nonzero"></path>
                        <polygon id="Shape" fill="#FFFFFF" fill-rule="nonzero" points="352.938056 690.118353 352.938056 705.900861 411.824796 705.900861"></polygon>
                        <path d="M289.845121,561.096349 L210.692166,394.590887 L88.3301094,140.887068 C82.9767694,145.227258 78.7705737,151.145699 76.0939038,157.853265 C75.3291409,160.220641 74.5643781,162.588017 73.7996152,164.955393 L16.0600199,426.945029 C15.295257,430.496093 15.295257,433.652595 15.295257,437.203659 C15.295257,438.78191 15.295257,440.360161 15.6776385,442.332975 C16.8247827,450.618791 19.8838341,458.510045 24.4724113,465.612174 L133.068736,604.498246 L187.366899,673.152157 C188.896424,674.730407 190.808332,676.308658 192.720239,677.886909 C195.396909,680.254285 198.45596,682.227099 201.897393,683.80535 C204.191681,684.989038 206.103589,685.778163 208.397877,686.567289 C209.545021,686.961851 210.692166,687.356414 211.83931,687.750977 C213.751217,688.540102 216.045506,688.934665 218.339794,689.329227 C219.86932,689.72379 221.781227,689.72379 223.310753,689.72379 L353.320438,689.72379 L290.992265,559.91266 L289.845121,561.096349 Z" id="Shape" fill="#00797F" fill-rule="nonzero"></path>
                        <path d="M15.295257,437.203659 C15.295257,433.652595 15.295257,430.496093 17.2071642,426.945029" id="Shape"></path>
                        <path d="M196.926434,683.410787 C193.512315,680.122764 190.098195,676.834742 187.366899,673.546719 C190.098195,676.834742 193.512315,680.122764 196.926434,683.410787 Z" id="Shape" fill="#00797F" fill-rule="nonzero"></path>
                        <path d="M202.279774,687.750977 C199.093262,685.120559 195.906751,681.832536 192.720239,677.886909" id="Shape"></path>
                        <path d="M187.366899,673.152157 L133.068736,604.103683" id="Shape"></path>
                        <path d="M217.001459,689.921072 C214.133599,688.934665 211.265738,687.948258 208.397877,686.961851" id="Shape"></path>
                        <path d="M211.456929,691.10476 C208.082975,689.131946 204.709021,686.172726 201.897393,684.199912 C204.709021,686.172726 208.082975,689.131946 211.456929,691.10476 Z" id="Shape" fill="#00797F" fill-rule="nonzero"></path>
                        <path d="M570.130706,247.418999 L526.539224,336.195607 L514.685399,360.658495 C514.303018,361.44762 513.920636,362.236746 513.538255,362.631308 L478.359164,434.047158 L457.710567,476.65993 C457.328185,477.449055 456.563423,478.632743 456.181041,479.421869 L428.267197,536.633461 C428.267197,537.028024 428.267197,537.028024 427.884816,537.422586 L414.119084,565.831101 C413.736703,566.620226 412.97194,567.803915 412.589559,568.59304 L353.320438,689.329227 L482.947741,689.329227 C486.006792,689.329227 489.448225,688.934665 492.507277,688.540102 C502.831575,686.961851 512.008729,681.437973 518.509214,672.757594 L611.045519,554.783345 L681.403701,464.823049 C684.845134,459.693734 687.521804,454.169856 689.05133,447.856852 C689.433711,447.067727 689.433711,446.278602 689.433711,445.489476 C690.198474,442.332975 690.580855,439.571036 690.580855,436.414534 C690.580855,432.86347 690.580855,429.706968 690.198474,426.155904 L631.694116,166.533644 C631.311734,164.955393 630.546971,163.377143 630.16459,161.798892 C627.870301,156.275014 624.046487,151.145699 619.840291,146.805509 L572.807376,242.289683 L570.130706,247.418999 Z" id="Shape" fill="#3ACCC5" fill-rule="nonzero"></path>
                        <path d="M692.301572,437.203659 C692.301572,440.634639 690.389665,443.636748 689.433711,447.067727" id="Shape"></path>
                        <path d="M692.683953,448.645978 C690.772046,452.098401 688.860139,455.550825 685.992278,458.510045" id="Shape"></path>
                        <path d="M492.124895,689.329227 C502.449194,687.750977 511.626348,682.227099 518.126832,673.546719 L610.663137,555.572471" id="Shape"></path>
                        <path d="M690.580855,426.945029 C691.536809,430.496093 691.536809,433.652595 691.536809,437.203659" id="Shape"></path>
                        <path d="M397.676683,317.256597 C388.499529,312.127282 376.645705,315.678346 371.674746,325.542414 C371.674746,325.542414 371.674746,325.542414 371.674746,325.542414 L342.996139,381.175755 C338.025181,390.64526 341.466613,402.876704 351.026149,408.006019 C360.203303,413.135334 372.057127,409.58427 377.028086,399.720203 L405.706693,344.086861 C410.677651,334.617356 406.853837,322.385912 397.676683,317.256597 C397.676683,317.256597 397.676683,317.256597 397.676683,317.256597 Z" id="Shape" fill="#FFFFFF" fill-rule="nonzero"></path>
                        <path d="M419.090043,511.381448 C409.530507,506.646695 398.059064,510.592322 393.470487,520.061827 C393.470487,520.061827 393.470487,520.061827 393.470487,520.061827 L379.704756,548.470342 C375.116179,558.33441 378.939993,570.171291 388.499529,574.906043 C396.91192,579.246233 406.853837,576.484294 412.207177,568.987603 L427.884816,537.028024 C432.091011,527.558519 428.267197,516.1162 419.090043,511.381448 Z" id="Shape" fill="#FFFFFF" fill-rule="nonzero"></path>
                        <path d="M427.884816,537.817149 C427.884816,537.422586 427.884816,537.422586 428.267197,537.028024 L412.589559,568.987603 C413.354321,568.198477 413.736703,567.409352 414.119084,566.225664 L427.884816,537.817149 Z" id="Shape" fill="#FFFFFF" fill-rule="nonzero"></path>
                        <path d="M311.640862,519.272702 L339.554706,465.217611 C344.525665,455.748107 341.084232,443.516663 331.524696,438.387348 C322.347542,433.258032 310.493718,436.809097 305.522759,446.673164 L290.227502,476.65993 L182.39594,240.31687 L250.842215,240.31687 L313.552769,360.263932 L314.317532,359.869369 L335.348511,319.229411 L273.40272,200.8606 L118.538242,200.8606 L210.309784,394.196325 L290.227502,559.91266 L311.640862,519.272702 Z" id="Shape" fill="#FFFFFF" fill-rule="nonzero"></path>
                        <polygon id="Shape" fill="#FFFFFF" fill-rule="nonzero" points="290.227502 560.307223 210.692166 394.590887 289.845121 561.096349"></polygon>
                        <path d="M591.544066,203.227976 L511.626348,203.227976 C500.919668,203.227976 492.507277,211.908355 492.507277,222.956111 C492.507277,234.003867 500.919668,242.684246 511.626348,242.684246 L534.569233,242.684246 C536.863522,253.337439 547.187821,260.045005 557.512119,257.677629 C562.865459,256.493941 567.454036,252.942877 570.130706,248.208124 L572.807376,242.684246 L591.544066,203.227976 Z" id="Shape" fill="#FFFFFF" fill-rule="nonzero"></path>
                        <polygon id="Shape" fill="#FFFFFF" fill-rule="nonzero" points="576.822381 242.289683 570.130706 252.153751 571.08666 251.449175"></polygon>
                        <path d="M541.834481,304.630591 C546.805439,294.766523 542.981625,282.929642 533.422089,278.19489 C523.862554,273.460137 512.391111,277.011201 507.802534,286.875269 C507.802534,286.875269 507.802534,286.875269 507.802534,287.269832 L480.653452,343.692298 C476.064875,353.556366 479.88869,365.393247 489.448225,370.128 C497.860617,374.468189 508.184915,371.70625 513.538255,363.420434 L526.539224,336.59017 L541.834481,304.630591 Z" id="Shape" fill="#FFFFFF" fill-rule="nonzero"></path>
                        <path d="M526.539224,336.59017 L513.538255,363.420434 C513.920636,362.631308 514.303018,361.842183 514.685399,361.44762 L526.539224,336.59017 Z" id="Shape" fill="#FFFFFF" fill-rule="nonzero"></path>
                        <path d="M484.859648,421.026589 C489.448225,411.162521 485.624411,399.32564 476.447257,394.590887 C467.270103,389.856135 455.416278,393.801762 450.827701,403.271267 L423.67862,459.693734 C419.090043,469.557801 422.913857,481.394682 432.473393,486.129435 C440.885784,490.469624 450.827701,487.707686 456.181041,480.210994 L478.359164,434.836283 L484.859648,421.026589 Z" id="Shape" fill="#FFFFFF" fill-rule="nonzero"></path>
                        <path d="M478.359164,434.836283 L456.181041,480.210994 C456.945804,479.421869 457.328185,478.238181 457.710567,477.449055 L478.359164,434.836283 Z" id="Shape" fill="#FFFFFF" fill-rule="nonzero"></path>
                        <path d="M456.563423,202.43885 C453.886753,200.8606 450.827701,200.071474 447.76865,200.071474 L435.914826,200.071474 L402.26526,266.358008 C396.147157,275.432951 398.441446,287.664394 407.236219,293.977398 C416.030991,300.290401 427.884816,297.923025 434.002918,288.848083 C434.767681,287.664394 435.532444,286.480706 435.914826,284.902456 L464.593433,229.269114 C469.564391,219.405047 466.122958,207.568166 456.563423,202.43885 C456.945804,202.43885 456.563423,202.43885 456.563423,202.43885 Z" id="Shape" fill="#FFFFFF" fill-rule="nonzero"></path>
                    </g>
                </g>
            </g>
        </g>
    </g>
</svg>