<svg xmlns:xlink="http://www.w3.org/1999/xlink" width="1024px" height="400px" xmlns="http://www.w3.org/2000/svg"><style type="text/css">
path { fill: none; stroke: rgb(51,51,51); }
path.series { stroke: #6b63ff; }
rect.background { fill: rgb(255,255,255); stroke: none; }

text {
	stroke-width: 0;
	stroke: none;
	fill: rgba(51,51,51,1.0);
	font-size: 12.8px;
	font-family: 'Roboto Medium', sans-serif;
}
</style><rect x="0" y="0" width="1024px" height="400px" class="background" rx="8" /><path stroke-width="2" class="series" d="M 58 344 L 59 342 L 60 340 L 65 338 L 89 336 L 104 335 L 139 333 L 193 331 L 210 329 L 217 327 L 220 325 L 239 324 L 246 322 L 246 320 L 247 318 L 253 316 L 260 314 L 274 313 L 280 311 L 294 309 L 298 307 L 315 305 L 319 303 L 329 302 L 345 300 L 353 298 L 353 296 L 354 294 L 361 292 L 363 291 L 373 289 L 379 287 L 379 285 L 383 283 L 383 281 L 383 280 L 385 278 L 387 276 L 391 274 L 391 272 L 393 270 L 405 269 L 407 267 L 421 265 L 423 263 L 433 261 L 435 259 L 441 258 L 452 256 L 452 254 L 453 252 L 453 250 L 454 248 L 457 247 L 463 245 L 469 243 L 469 241 L 473 239 L 476 237 L 477 236 L 482 234 L 484 232 L 484 230 L 487 228 L 488 226 L 488 225 L 500 223 L 500 221 L 507 219 L 509 217 L 514 215 L 520 214 L 533 212 L 534 210 L 535 208 L 552 206 L 553 204 L 554 203 L 556 201 L 558 199 L 560 197 L 562 195 L 578 193 L 583 192 L 586 190 L 588 188 L 591 186 L 592 184 L 595 182 L 601 181 L 604 179 L 604 177 L 607 175 L 623 173 L 630 171 L 635 170 L 643 168 L 645 166 L 647 164 L 650 162 L 653 160 L 661 159 L 663 157 L 665 155 L 674 153 L 679 151 L 681 149 L 687 148 L 691 146 L 696 144 L 715 142 L 717 140 L 723 138 L 725 137 L 730 135 L 735 133 L 741 131 L 741 129 L 741 127 L 751 126 L 751 124 L 757 122 L 760 120 L 765 118 L 770 116 L 772 115 L 775 113 L 777 111 L 778 109 L 778 107 L 782 105 L 793 104 L 796 102 L 804 100 L 804 98 L 805 96 L 817 94 L 818 92 L 820 91 L 843 89 L 848 87 L 848 85 L 850 83 L 858 82 L 874 80 L 876 78 L 877 76 L 878 74 L 878 72 L 878 71 L 888 69 L 895 67 L 896 65 L 896 63 L 896 61 L 896 60 L 896 58 L 896 56 L 896 54 L 896 52 L 896 50 L 896 49 L 897 47 L 899 45 L 901 43 L 902 41 L 912 39 L 917 38 L 924 36 L 927 34 L 929 32 L 930 30 L 940 28 L 944 27 L 945 25" /><path stroke-width="2" d="M 945 346 L 945.000000 15.000000" /><path stroke-width="2" d="M 945 346 L 950 346" /><text x="955" y="352">0</text><path stroke-width="2" d="M 945 309 L 950 309" /><text x="955" y="315">20</text><path stroke-width="2" d="M 945 272 L 950 272" /><text x="955" y="278">40</text><path d="M 945 236 L 950 236" stroke-width="2" /><text x="955" y="242">60</text><path stroke-width="2" d="M 945 199 L 950 199" /><text x="955" y="205">80</text><path stroke-width="2" d="M 945 162 L 950 162" /><text x="955" y="168">100</text><path stroke-width="2" d="M 945 126 L 950 126" /><text x="955" y="132">120</text><path stroke-width="2" d="M 945 89 L 950 89" /><text x="955" y="95">140</text><path d="M 945 52 L 950 52" stroke-width="2" /><text x="955" y="58">160</text><path stroke-width="2" d="M 945 16 L 950 16" /><text x="955" y="22">180</text><text x="987" y="175" transform="rotate(90.00,987,175)">Stargazers</text><path stroke-width="2" d="M 57.000000 346.000000 L 945 346" /><path stroke-width="2" d="M 58 346 L 58 351" /><text x="25" y="368">2017-10-10</text><path stroke-width="2" d="M 157 346 L 157 351" /><text x="124" y="368">2018-09-18</text><path stroke-width="2" d="M 256 346 L 256 351" /><text x="223" y="368">2019-08-27</text><path stroke-width="2" d="M 354 346 L 354 351" /><text x="321" y="368">2020-08-03</text><path stroke-width="2" d="M 453 346 L 453 351" /><text x="420" y="368">2021-07-12</text><path stroke-width="2" d="M 551 346 L 551 351" /><text x="518" y="368">2022-06-20</text><path stroke-width="2" d="M 650 346 L 650 351" /><text x="617" y="368">2023-05-28</text><path stroke-width="2" d="M 748 346 L 748 351" /><text x="715" y="368">2024-05-05</text><path stroke-width="2" d="M 847 346 L 847 351" /><text x="814" y="368">2025-04-13</text><path stroke-width="2" d="M 945 346 L 945 351" /><text y="368" x="912">2026-03-21</text><text x="487" y="390">Time</text></svg>