<?xml version="1.0" encoding="UTF-8"?><svg id="uuid-3e7474bf-34a5-4e56-aed5-e5386eca7a09" xmlns="http://www.w3.org/2000/svg" viewBox="0 0 38 38"><title>Red Hat OpenShift Virtualization icon</title>
<desc>RHOCPV</desc>
<metadata><?xpacket begin="﻿" id="W5M0MpCehiHzreSzNTczkc9d"?>
<x:xmpmeta xmlns:x="adobe:ns:meta/" x:xmptk="Adobe XMP Core 8.0-c001 1.000000, 0000/00/00-00:00:00        ">
   <rdf:RDF xmlns:rdf="http://www.w3.org/1999/02/22-rdf-syntax-ns#">
      <rdf:Description rdf:about=""
            xmlns:xmp="http://ns.adobe.com/xap/1.0/"
            xmlns:dc="http://purl.org/dc/elements/1.1/"
            xmlns:cq="http://www.day.com/jcr/cq/1.0"
            xmlns:tiff="http://ns.adobe.com/tiff/1.0/"
            xmlns:xmpRights="http://ns.adobe.com/xap/1.0/rights/">
         <xmp:rhcc-effective-on>2024-03-01T15:27:27.098Z</xmp:rhcc-effective-on>
         <xmp:rhcc-metadata-complete-moderator>pending</xmp:rhcc-metadata-complete-moderator>
         <xmp:rhcc-translation-id>TRA47566e4a-3cf2-4d4a-89fe-1ddec0cbbf8d</xmp:rhcc-translation-id>
         <xmp:brand-content-type>Icon</xmp:brand-content-type>
         <xmp:CreateDate>2024-03-01T15:27:27.098Z</xmp:CreateDate>
         <xmp:rhcc-aspect-ratio>square</xmp:rhcc-aspect-ratio>
         <xmp:rhcc-effective-on-set-on-upload>true</xmp:rhcc-effective-on-set-on-upload>
         <xmp:rhcc-metadata-complete-uploader>pending</xmp:rhcc-metadata-complete-uploader>
         <xmp:rhcc-file-last-modified>2024-07-12T23:53:37.374Z</xmp:rhcc-file-last-modified>
         <xmp:rhcc-audience>rhcc-audience:internal</xmp:rhcc-audience>
         <xmp:rhcc-rights-restricted>no</xmp:rhcc-rights-restricted>
         <xmp:brand-content-subtype>Technology icon</xmp:brand-content-subtype>
         <xmp:rhcc-derivative-id>DER47566e4a-3cf2-4d4a-89fe-1ddec0cbbf8d</xmp:rhcc-derivative-id>
         <xmp:rhcc-uploaded-by>pmeilleu@redhat.com</xmp:rhcc-uploaded-by>
         <xmp:brand-logo-color>Standard</xmp:brand-logo-color>
         <xmp:rhcc-notify-portal-subscribers-on-change>yes</xmp:rhcc-notify-portal-subscribers-on-change>
         <xmp:rhcc-product>
            <rdf:Bag>
               <rdf:li>rhcc-product:red-hat-openshift-container-platform</rdf:li>
            </rdf:Bag>
         </xmp:rhcc-product>
         <xmp:brand-subtype>
            <rdf:Bag>
               <rdf:li>Technology icon</rdf:li>
            </rdf:Bag>
         </xmp:brand-subtype>
         <dc:format>image/svg+xml</dc:format>
         <dc:modified>2024-05-10T00:28:40.152Z</dc:modified>
         <dc:title>
            <rdf:Alt>
               <rdf:li xml:lang="x-default">Red Hat OpenShift Virtualization icon</rdf:li>
            </rdf:Alt>
         </dc:title>
         <dc:description>
            <rdf:Alt>
               <rdf:li xml:lang="x-default">RHOCPV</rdf:li>
            </rdf:Alt>
         </dc:description>
         <cq:lastReplicationAction_scene7>Activate</cq:lastReplicationAction_scene7>
         <cq:lastReplicationAction_publish>Activate</cq:lastReplicationAction_publish>
         <cq:lastReplicated_publish>2024-10-02T19:53:11.608Z</cq:lastReplicated_publish>
         <cq:lastReplicatedBy>workflow-process-service</cq:lastReplicatedBy>
         <cq:lastReplicationAction>Activate</cq:lastReplicationAction>
         <cq:lastReplicatedBy_publish>workflow-process-service</cq:lastReplicatedBy_publish>
         <cq:isDelivered>false</cq:isDelivered>
         <cq:lastReplicated>2024-10-02T19:53:11.608Z</cq:lastReplicated>
         <cq:lastReplicatedBy_scene7>workflow-process-service</cq:lastReplicatedBy_scene7>
         <cq:lastReplicated_scene7>2024-10-02T19:53:11.608Z</cq:lastReplicated_scene7>
         <tiff:ImageLength>38</tiff:ImageLength>
         <tiff:ImageWidth>38</tiff:ImageWidth>
         <xmpRights:UsageTerms>
            <rdf:Alt>
               <rdf:li xml:lang="x-default">Use technology icons to represent Red Hat products and components. Do not remove the icon from the bounding shape.</rdf:li>
            </rdf:Alt>
         </xmpRights:UsageTerms>
      </rdf:Description>
   </rdf:RDF>
</x:xmpmeta>
                                                                                                    
                                                                                                    
                                                                                                    
                                                                                                    
                                                                                                    
                                                                                                    
                                                                                                    
                                                                                                    
                                                                                                    
                                                                                                    
                                                                                                    
                                                                                                    
                                                                                                    
                                                                                                    
                                                                                                    
                                                                                                    
                                                                                                    
                                          
<?xpacket end="w"?></metadata>
<defs><style>.uuid-307d0da5-1347-4568-a9e8-d493d1568293{fill:#ed0000;}.uuid-c0f5d084-e5e4-40d8-a90b-090b8f685630{fill:#fff;}.uuid-f561ff22-ecd2-4ecd-90b4-bfabccef521b{fill:#e0e0e0;}</style></defs><path class="uuid-c0f5d084-e5e4-40d8-a90b-090b8f685630" d="m28,1H10C5.02944,1,1,5.02944,1,10v18c0,4.97057,4.02944,9,9,9h18c4.97056,0,9-4.02943,9-9V10c0-4.97056-4.02944-9-9-9h0Z"/><path class="uuid-f561ff22-ecd2-4ecd-90b4-bfabccef521b" d="m28,2.25c4.27332,0,7.75,3.47668,7.75,7.75v18c0,4.27332-3.47668,7.75-7.75,7.75H10c-4.27332,0-7.75-3.47668-7.75-7.75V10c0-4.27332,3.47668-7.75,7.75-7.75h18m0-1.25H10C5.02942,1,1,5.02942,1,10v18c0,4.97058,4.02942,9,9,9h18c4.97058,0,9-4.02942,9-9V10c0-4.97058-4.02942-9-9-9h0Z"/><path class="uuid-307d0da5-1347-4568-a9e8-d493d1568293" d="m26.54297,24.68945c-.1709-.29785-.5498-.4043-.85352-.23242l-6.69995,3.82861-6.86157-3.67432c-.30371-.16406-.68359-.04883-.8457.25586-.16309.30371-.04883.68262.25586.8457l7.1521,3.82983c.00037.00024.00073.00049.00122.00073l.01367.00732c.09375.05078.19434.07422.29395.07422.00037,0,.00061-.00024.00098-.00024s.00061.00024.00098.00024c.10449,0,.21094-.02637.30957-.08203l7-4c.29883-.17188.40332-.55371.23242-.85352Z"/><path d="m26.47461,12.59277h-.00098c-.02246-.02637-.0459-.0498-.07227-.07227-.03223-.02637-.06543-.0498-.10156-.06934l-6.98926-3.99414c-.05054-.02856-.10449-.03833-.15771-.052-.01648-.00415-.02917-.01221-.0459-.01501-.10828-.01917-.21448-.00867-.31506.02722-.01038.00342-.02185-.00122-.0321.00269-.02319.01001-.04346.03223-.06616.04614-.03833.02197-.07422.0448-.10742.07495-.0083.00757-.01855.01062-.02661.01855-.01611.01611-.02344.03784-.03772.05542-.02087.02588-.04785.04468-.06482.07446-.00732.0127-.00696.0271-.01318.04004-.02295.04492-.03455.09106-.0459.13916-.00586.0271-.01477.05273-.01697.07996-.00159.01746-.01086.03381-.01086.05139,0,.03699.01575.07312.02295.11035.00488.02698.00806.05298.01648.0791.01428.04309.03491.07935.05823.11816.02148.03735.0437.07202.07288.10474.00769.00781.01086.01978.01892.0271.01807.01807.04053.02612.06006.04224.02441.01953.04175.04517.06982.06128l6.05078,3.45703-6.05078,3.45703c-.02173.01245-.03174.0365-.05151.05127-.02563.01855-.05566.02856-.07837.05127-.02563.02368-.03894.05786-.05981.08618-.01685.02393-.03491.0437-.04834.06982-.04785.08948-.0813.18628-.0813.28442,0,.00781.00452.01562.00488.02356v7.97644c0,.02295.01465.04175.01709.06421.00732.07068.02344.13867.05444.20361.01697.0354.03931.0636.06274.09521.01807.0249.02783.05396.05029.07642.02588.02588.05737.03906.08594.0603.01611.0116.02368.03113.04102.04126.00879.00513.01953.00305.02856.00757.0155.00867.02905.02466.04468.03149.08008.0293.16016.0498.24023.0498s.16016-.02051.24023-.0498c.0166-.00635.02625-.02148.04199-.02954.00903-.00464.01953-.00256.02832-.00757l7-4c.19434-.11133.31445-.31836.31445-.54297v-8.00684c-.00195-.15234-.05762-.29199-.15039-.40039Zm-1.09961,8.04492l-5.75,3.28516v-6.56055l5.75-3.28516v6.56055Z"/><path d="m13.31934,11.55957c-.11914.12012-.17969.27051-.17969.44043s.06055.33008.17969.43945c.11035.12012.27051.19043.44043.19043s.32031-.07031.44043-.19043c.11914-.10938.17969-.26953.17969-.43945s-.06055-.32031-.17969-.44043c-.23047-.24023-.65039-.24023-.88086,0Z"/><path d="m15.2002,10.45996c-.30078.16992-.41016.5498-.23047.84961.11035.2002.32031.32031.54004.32031.09961,0,.20996-.03027.30957-.08984.30078-.16992.40039-.5498.23047-.85059-.16992-.2998-.5498-.39941-.84961-.22949Z"/><path d="m16.93945,9.45996c-.2998.16992-.39941.5498-.22949.84961.12012.2002.33008.32031.54004.32031.10938,0,.21973-.03027.30957-.08984.2998-.16992.41016-.5498.24023-.85059-.17969-.2998-.55957-.39941-.86035-.22949Z"/><path d="m14.05957,21.45996c-.2998-.16992-.67969-.07031-.84961.22949-.16992.30078-.07031.68066.22949.85059.10059.05957.2002.08984.31055.08984.21973,0,.42969-.12012.54004-.32031.16992-.2998.06934-.67969-.23047-.84961Z"/><path d="m15.80957,22.45996c-.2998-.16992-.67969-.07031-.84961.22949-.16992.30078-.07031.68066.22949.85059.10059.05957.2002.08984.31055.08984.21973,0,.42969-.12012.54004-.32031.16992-.2998.06934-.67969-.23047-.84961Z"/><path d="m17.55957,23.45996c-.2998-.16992-.67969-.07031-.84961.22949-.16992.30078-.07031.68066.22949.85059.10059.05957.20996.08984.31055.08984.21973,0,.42969-.12012.54004-.32031.16992-.2998.06934-.67969-.23047-.84961Z"/><path d="m12.24023,20.41992c-.15039-.06055-.33008-.06055-.48047,0-.08008.04004-.13965.08008-.2002.13965-.12012.12012-.18945.28027-.18945.44043,0,.08008.01953.16016.0498.24023.03027.06934.08008.13965.13965.19922.06055.06055.12012.11035.2002.14062.08008.0293.16016.0498.24023.0498s.16016-.02051.24023-.0498c.0791-.03027.13965-.08008.19922-.14062.06055-.05957.11035-.12012.14062-.19922.0293-.08008.0498-.16016.0498-.24023,0-.16016-.07031-.32031-.19043-.44043-.05957-.05957-.12012-.09961-.19922-.13965Z"/><path d="m12,18.37988c-.35059,0-.62012.26953-.62012.62012,0,.33984.26953.62988.62012.62988.33984,0,.62988-.29004.62988-.62988,0-.35059-.29004-.62012-.62988-.62012Z"/><path d="m12,14.37988c-.35059,0-.62012.26953-.62012.62012,0,.34961.26953.62988.62012.62988.33984,0,.62988-.28027.62988-.62988,0-.35059-.29004-.62012-.62988-.62012Z"/><path d="m12,16.37988c-.35059,0-.62012.26953-.62012.62012,0,.34961.26953.62988.62012.62988.33984,0,.62988-.28027.62988-.62988,0-.35059-.29004-.62012-.62988-.62012Z"/><path d="m12.43945,12.55957c-.16992-.17969-.44922-.24023-.67969-.13965-.07031.04004-.13965.08008-.2002.13965-.05957.06055-.10938.12988-.13965.2002-.03027.08008-.0498.16016-.0498.24023,0,.16016.06934.31934.18945.43945.06055.06055.12988.11035.2002.14062.08008.0293.16016.0498.24023.0498.16016,0,.33008-.07031.43945-.19043.06055-.05957.11035-.12012.14062-.19922.0293-.08008.0498-.16016.0498-.24023s-.02051-.16016-.0498-.24023c-.03027-.08008-.08008-.13965-.14062-.2002Z"/><path d="m14.05957,13.45996c-.2998-.16992-.67969-.07031-.84961.22949-.16992.30078-.07031.68066.22949.85059.10059.05957.2002.08984.31055.08984.21973,0,.42969-.12012.54004-.32031.16992-.2998.06934-.67969-.23047-.84961Z"/><path d="m17.55957,15.45996c-.2998-.16992-.67969-.07031-.84961.22949-.16992.30078-.07031.68066.22949.85059.10059.05957.2002.08984.31055.08984.21973,0,.42969-.12012.54004-.32031.17969-.2998.06934-.67969-.23047-.84961Z"/><path d="m15.80957,14.45996c-.2998-.16992-.67969-.07031-.84961.22949-.16992.30078-.07031.68066.22949.85059.10059.05957.2002.08984.31055.08984.20996,0,.42969-.12012.54004-.32031.16992-.2998.06934-.67969-.23047-.84961Z"/></svg>