<?xml version="1.0" encoding="UTF-8"?><svg id="uuid-46701468-6641-48cb-987a-ad8aaaa4cc57" xmlns="http://www.w3.org/2000/svg" viewBox="0 0 38 38"><title>Red Hat Lightspeed icon</title>
<desc>IBM watsonx code assistant, AI, ML, artificial intelligence, machine learning</desc>
<metadata><?xpacket begin="﻿" id="W5M0MpCehiHzreSzNTczkc9d"?>
<x:xmpmeta xmlns:x="adobe:ns:meta/" x:xmptk="Adobe XMP Core 8.0-c001 1.000000, 0000/00/00-00:00:00        ">
   <rdf:RDF xmlns:rdf="http://www.w3.org/1999/02/22-rdf-syntax-ns#">
      <rdf:Description rdf:about=""
            xmlns:xmp="http://ns.adobe.com/xap/1.0/"
            xmlns:dc="http://purl.org/dc/elements/1.1/"
            xmlns:ns1="http://prismstandard.org/namespaces/basic/2.1/"
            xmlns:cq="http://www.day.com/jcr/cq/1.0"
            xmlns:tiff="http://ns.adobe.com/tiff/1.0/"
            xmlns:xmpRights="http://ns.adobe.com/xap/1.0/rights/">
         <xmp:rhcc-effective-on>2024-03-01T15:25:41.440Z</xmp:rhcc-effective-on>
         <xmp:rhcc-metadata-complete-moderator>pending</xmp:rhcc-metadata-complete-moderator>
         <xmp:rhcc-translation-id>TRAb4084a09-1269-420a-827e-aefbf4c3841f</xmp:rhcc-translation-id>
         <xmp:brand-content-type>Icon</xmp:brand-content-type>
         <xmp:CreateDate>2024-03-01T15:25:41.440Z</xmp:CreateDate>
         <xmp:rhcc-aspect-ratio>square</xmp:rhcc-aspect-ratio>
         <xmp:rhcc-effective-on-set-on-upload>true</xmp:rhcc-effective-on-set-on-upload>
         <xmp:rhcc-published-asset-email-sent>true</xmp:rhcc-published-asset-email-sent>
         <xmp:rhcc-metadata-complete-uploader>pending</xmp:rhcc-metadata-complete-uploader>
         <xmp:rhcc-file-last-modified>2024-07-13T00:09:40.560Z</xmp:rhcc-file-last-modified>
         <xmp:rhcc-audience>rhcc-audience:internal</xmp:rhcc-audience>
         <xmp:rhcc-rights-restricted>yes</xmp:rhcc-rights-restricted>
         <xmp:brand-content-subtype>Technology icon</xmp:brand-content-subtype>
         <xmp:rhcc-derivative-id>DERb4084a09-1269-420a-827e-aefbf4c3841f</xmp:rhcc-derivative-id>
         <xmp:rhcc-uploaded-by>pmeilleu@redhat.com</xmp:rhcc-uploaded-by>
         <xmp:brand-logo-color>Standard</xmp:brand-logo-color>
         <xmp:rhcc-notify-portal-subscribers-on-change>yes</xmp:rhcc-notify-portal-subscribers-on-change>
         <xmp:rhcc-product>
            <rdf:Bag>
               <rdf:li>rhcc-product:red-hat-ansible-automation-platform</rdf:li>
               <rdf:li>rhcc-product:red-hat-enterprise-linux</rdf:li>
               <rdf:li>rhcc-product:red-hat-openshift</rdf:li>
            </rdf:Bag>
         </xmp:rhcc-product>
         <xmp:brand-subtype>
            <rdf:Bag>
               <rdf:li>Technology icon</rdf:li>
            </rdf:Bag>
         </xmp:brand-subtype>
         <dc:format>image/svg+xml</dc:format>
         <dc:modified>2024-05-06T15:04:07.603Z</dc:modified>
         <dc:title>
            <rdf:Alt>
               <rdf:li xml:lang="x-default">Red Hat Lightspeed icon</rdf:li>
            </rdf:Alt>
         </dc:title>
         <dc:description>
            <rdf:Alt>
               <rdf:li xml:lang="x-default">IBM watsonx code assistant, AI, ML, artificial intelligence, machine learning</rdf:li>
            </rdf:Alt>
         </dc:description>
         <ns1:expirationDate>2025-12-29T11:03:00.000-05:00</ns1:expirationDate>
         <cq:lastReplicationAction_scene7>Activate</cq:lastReplicationAction_scene7>
         <cq:lastReplicationAction_publish>Activate</cq:lastReplicationAction_publish>
         <cq:lastReplicated_publish>2024-10-02T19:50:10.716Z</cq:lastReplicated_publish>
         <cq:lastReplicatedBy>workflow-process-service</cq:lastReplicatedBy>
         <cq:lastReplicationAction>Activate</cq:lastReplicationAction>
         <cq:lastReplicatedBy_publish>workflow-process-service</cq:lastReplicatedBy_publish>
         <cq:isDelivered>false</cq:isDelivered>
         <cq:lastReplicated>2024-10-02T19:50:10.716Z</cq:lastReplicated>
         <cq:lastReplicatedBy_scene7>workflow-process-service</cq:lastReplicatedBy_scene7>
         <cq:lastReplicated_scene7>2024-10-02T19:50:10.716Z</cq:lastReplicated_scene7>
         <tiff:ImageLength>38</tiff:ImageLength>
         <tiff:ImageWidth>38</tiff:ImageWidth>
         <xmpRights:UsageTerms>
            <rdf:Alt>
               <rdf:li xml:lang="x-default">Use technology icons to represent Red Hat products and components. Do not remove the icon from the bounding shape.</rdf:li>
            </rdf:Alt>
         </xmpRights:UsageTerms>
      </rdf:Description>
   </rdf:RDF>
</x:xmpmeta>
                                                                                                    
                                                                                                    
                                                                                                    
                                                                                                    
                                                                                                    
                                                                                                    
                                                                                                    
                                                                                                    
                                                                                                    
                                                                                                    
                                                                                                    
                                                                                                    
                                                                                                    
                                                                                                    
                                                                                                    
                                                                                                    
                                                                                                    
                                                                                                    
                                                                                                    
                                                                                                    
                                                                                                    
                                                                                                    
                                              
<?xpacket end="w"?></metadata>
<defs><style>.uuid-05c8f53d-396a-4a77-b610-4cae1607b37f{fill:#e00;}.uuid-058b635d-b61c-46f4-982a-a91d6a2263eb{fill:#fff;}.uuid-0168188c-d0a6-496e-a2d8-5cd6ee30dcb2{fill:#e0e0e0;}</style></defs><path class="uuid-058b635d-b61c-46f4-982a-a91d6a2263eb" d="m28,1H10C5.02944,1,1,5.02944,1,10v18c0,4.97057,4.02944,9,9,9h18c4.97056,0,9-4.02943,9-9V10c0-4.97056-4.02944-9-9-9h0Z"/><path class="uuid-0168188c-d0a6-496e-a2d8-5cd6ee30dcb2" d="m28,2.25c4.27332,0,7.75,3.47664,7.75,7.75v18c0,4.27336-3.47668,7.75-7.75,7.75H10c-4.27332,0-7.75-3.47664-7.75-7.75V10c0-4.27336,3.47668-7.75,7.75-7.75h18m0-1.25H10C5.02942,1,1,5.02944,1,10v18c0,4.97057,4.02942,9,9,9h18c4.97058,0,9-4.02943,9-9V10c0-4.97056-4.02942-9-9-9h0Z"/><path class="uuid-05c8f53d-396a-4a77-b610-4cae1607b37f" d="m20,15.625c-.34473,0-.625-.28027-.625-.625v-7c0-.34473.28027-.625.625-.625s.625.28027.625.625v7c0,.34473-.28027.625-.625.625Z"/><path class="uuid-05c8f53d-396a-4a77-b610-4cae1607b37f" d="m16,19.625h-7c-.34473,0-.625-.28027-.625-.625s.28027-.625.625-.625h7c.34473,0,.625.28027.625.625s-.28027.625-.625.625Z"/><path class="uuid-05c8f53d-396a-4a77-b610-4cae1607b37f" d="m20,30.625c-.34473,0-.625-.28027-.625-.625v-7c0-.34473.28027-.625.625-.625s.625.28027.625.625v7c0,.34473-.28027.625-.625.625Z"/><path d="m30.57654,19.23944c.02795-.06769.03955-.13947.04285-.21149.00049-.00983.00562-.01807.00562-.02795s-.00513-.01813-.00562-.02795c-.0033-.07202-.01489-.1438-.04285-.21149-.02002-.04791-.05383-.08667-.08447-.12775-.01807-.02448-.02759-.05304-.04968-.0752l-2-2c-.24414-.24414-.64062-.24414-.88477,0-.24316.24414-.24316.64062,0,.88477l.93323.93262h-9.49084c-.34473,0-.625.28027-.625.625s.28027.625.625.625h9.49084l-.93323.93262c-.24316.24414-.24316.64062,0,.88477.12207.12207.28223.18262.44238.18262s.32031-.06055.44238-.18262l2-2c.02209-.02216.03162-.05072.04968-.0752.03064-.04108.06445-.07983.08447-.12775Z"/><path d="m17,16.625c-.16016,0-.32031-.06055-.44238-.18262l-4-4c-.24316-.24414-.24316-.64062,0-.88477.24414-.24414.64062-.24414.88477,0l4,4c.24316.24414.24316.64062,0,.88477-.12207.12207-.28223.18262-.44238.18262Z"/><path d="m13,26.625c-.16016,0-.32031-.06055-.44238-.18262-.24316-.24414-.24316-.64062,0-.88477l4-4c.24414-.24414.64062-.24414.88477,0,.24316.24414.24316.64062,0,.88477l-4,4c-.12207.12207-.28223.18262-.44238.18262Z"/><path class="uuid-05c8f53d-396a-4a77-b610-4cae1607b37f" d="m17.42383,13.625c-.28809,0-.54785-.20117-.61035-.49512l-.4248-2c-.07129-.33789.14355-.66992.48145-.74121.33887-.0752.66992.14355.74121.48145l.4248,2c.07129.33789-.14355.66992-.48145.74121-.04395.00977-.08789.01367-.13086.01367Z"/><path class="uuid-05c8f53d-396a-4a77-b610-4cae1607b37f" d="m14.00098,17.0498c-.04297,0-.08691-.00391-.13086-.01367l-2-.4248c-.33789-.07129-.55273-.40332-.48145-.74121.07227-.33789.40234-.55859.74121-.48145l2,.4248c.33789.07129.55273.40332.48145.74121-.0625.29395-.32227.49512-.61035.49512Z"/><path class="uuid-05c8f53d-396a-4a77-b610-4cae1607b37f" d="m17.00098,27.625c-.04297,0-.08691-.00391-.13086-.01367-.33789-.07129-.55273-.40332-.48145-.74121l.4248-2c.07227-.33789.40137-.55566.74121-.48145.33789.07129.55273.40332.48145.74121l-.4248,2c-.0625.29395-.32227.49512-.61035.49512Z"/><path class="uuid-05c8f53d-396a-4a77-b610-4cae1607b37f" d="m11.99902,22.625c-.28809,0-.54785-.20117-.61035-.49512-.07129-.33789.14355-.66992.48145-.74121l2-.4248c.34082-.07617.66992.14355.74121.48145s-.14355.66992-.48145.74121l-2,.4248c-.04395.00977-.08789.01367-.13086.01367Z"/><path d="m9,15.62988c-.16016,0-.32031-.07031-.44043-.19043-.05957-.05957-.09961-.12012-.13965-.19922-.03027-.08008-.0498-.16016-.0498-.24023,0-.16016.06934-.32031.18945-.44043.23047-.22949.65039-.24023.87988,0,.12012.12012.19043.28027.19043.44043,0,.08008-.02051.16016-.0498.24023-.03027.0791-.08008.13965-.14062.19922-.12012.12012-.2793.19043-.43945.19043Z"/><path d="m9,23.62988c-.16016,0-.32031-.07031-.44043-.19043-.12012-.10938-.18945-.2793-.18945-.43945s.06934-.32031.18945-.44043c.23047-.22949.64062-.24023.87988,0,.12012.12012.19043.28027.19043.44043s-.07031.33008-.19043.43945c-.12012.12012-.2793.19043-.43945.19043Z"/></svg>